<?xml version="1.0" encoding="utf-8"?>
<!-- Generator: Adobe Illustrator 24.1.2, SVG Export Plug-In . SVG Version: 6.00 Build 0)  -->
<svg version="1.1" xmlns="http://www.w3.org/2000/svg" xmlns:xlink="http://www.w3.org/1999/xlink" x="0px" y="0px"
	 viewBox="0 0 200 350" style="enable-background:new 0 0 200 350;" xml:space="preserve">
<style type="text/css">
	.st0{display:none;}
	.st1{fill:#3C5FA9;}
	.st2{opacity:0.24;}
	.st3{clip-path:url(#SVGID_2_);fill:#010202;}
	.st4{fill:#3B3A3B;}
	.st5{fill:#FFCE35;}
	.st6{fill:#E73735;}
	.st7{clip-path:url(#SVGID_4_);fill:#010202;}
</style>
<g id="Layer_1" class="st0">
</g>
<g id="Layer_2">
	<g>
		<path class="st6" d="M163.73,134.3L163.73,134.3c-0.03-1.51-0.07-3.01-0.11-4.5c-1.47-51.66,11.74-103.02-63.88-103.02
			S37.33,78.15,35.86,129.8c-0.04,1.51-0.08,3.04-0.12,4.58c-7.41,1.22-10.19,11.93-8.75,15.09c1.2,2.65,6.68-4.16,8.6-6.68
			c-0.64,49.15,2.3,106.15,0.2,128.78c-2.29,24.65,0.14,51.66,63.94,51.66s66.23-27,63.94-51.66c-2.11-22.74,0.87-80.17,0.19-129.49
			c1.04,1.41,7.78,10.37,9.14,7.39C174.48,146.24,171.54,135.08,163.73,134.3z"/>
		<g class="st2">
			<defs>
				<path id="SVGID_3_" class="st2" d="M163.73,134.3L163.73,134.3c-0.03-1.51-0.07-3.01-0.11-4.5
					c-1.47-51.66,11.74-103.02-63.88-103.02S37.33,78.15,35.86,129.8c-0.04,1.51-0.08,3.04-0.12,4.58
					c-7.41,1.22-10.19,11.93-8.75,15.09c1.2,2.65,6.68-4.16,8.6-6.68c-0.64,49.15,2.3,106.15,0.2,128.78
					c-2.29,24.65,0.14,51.66,63.94,51.66s66.23-27,63.94-51.66c-2.11-22.74,0.87-80.17,0.19-129.49c1.04,1.41,7.78,10.37,9.14,7.39
					C174.48,146.24,171.54,135.08,163.73,134.3z"/>
			</defs>
			<clipPath id="SVGID_2_">
				<use xlink:href="#SVGID_3_"  style="overflow:visible;"/>
			</clipPath>
			<path class="st3" d="M175.94,96.64c0,0-24.15,73.67-25.33,81.3s-3.52,50.19-1.17,58.7c2.35,8.51,10.19,48.43-1.96,65.45
				c-12.15,17.02-47.75,15.85-47.75,15.85s-35.6,1.17-47.75-15.85c-12.15-17.02-4.3-56.94-1.96-65.45c2.35-8.51,0-51.07-1.17-58.7
				S23.03,94.29,23.03,94.29l7.04,235.39l72.46,4.66l-0.06-0.36l66.93-4.31L175.94,96.64z"/>
		</g>
		<path class="st4" d="M99.74,158.56c26.02,0,49.2,6.75,49.2,6.75l9.1-36.69c0,0-13.59-20.54-58.3-20.54s-56.16,19.66-56.16,19.66
			l9.69,36.1C53.26,163.85,77.24,158.56,99.74,158.56z"/>
		<path class="st5" d="M134.27,37.94c-2.29,0,11.74,29.06,18.78,29.06s3.21-12.37-2.64-20.84S136.56,37.94,134.27,37.94z"/>
		<path class="st5" d="M67.25,37.94c2.29,0-11.74,29.06-18.78,29.06s-3.21-12.37,2.64-20.84S64.96,37.94,67.25,37.94z"/>
		<path class="st4" d="M99.89,245.72c22.19,0,41.97-5.76,41.97-5.76l7.76,31.29c0,0-11.59,17.52-49.73,17.52
			s-47.91-16.77-47.91-16.77l8.26-30.79C60.25,241.21,80.71,245.72,99.89,245.72z"/>
	</g>
</g>
</svg>
