<?xml version="1.0" encoding="utf-8"?>
<!-- Generator: Adobe Illustrator 24.1.2, SVG Export Plug-In . SVG Version: 6.00 Build 0)  -->
<svg version="1.1" id="Layer_1" xmlns="http://www.w3.org/2000/svg" xmlns:xlink="http://www.w3.org/1999/xlink" x="0px" y="0px"
	 viewBox="0 0 320 44.3" style="enable-background:new 0 0 320 44.3;" xml:space="preserve">
<g id="SvgjsG1007" transform="matrix(-3.3333333333333335,0,0,3.3333333333333335,100,-39)">
	<g transform="translate(-270 -140)">
		<g>
			<path d="M279,161c-0.7,0-1.4,0.4-1.7,1c-0.2,0.3-0.3,0.6-0.3,1c0,1.1,0.9,2,2,2s2-0.9,2-2c0-0.4-0.1-0.7-0.3-1
				C280.4,161.4,279.7,161,279,161z"/>
			<path d="M293,161c-0.7,0-1.4,0.4-1.7,1c-0.2,0.3-0.3,0.6-0.3,1c0,1.1,0.9,2,2,2s2-0.9,2-2c0-0.4-0.1-0.7-0.3-1
				C294.4,161.4,293.7,161,293,161z"/>
			<path d="M299,159v-1l-6-1.7l-7-4.3h-11v1h6v1h-11v1h12v1h-10v1h5v1h-2v1h-4v1h5v1h-1v1h-3v1h4c0-0.4,0.1-0.7,0.2-1
				c0.4-1.2,1.5-2,2.8-2c1.3,0,2.4,0.8,2.8,2c0.1,0.3,0.2,0.6,0.2,1h8c0-0.4,0.1-0.7,0.2-1c0.4-1.2,1.5-2,2.8-2c1.3,0,2.4,0.8,2.8,2
				c0.1,0.3,0.2,0.6,0.2,1h3v-1h1v-3H299z"/>
		</g>
	</g>
</g>
<g id="SvgjsG1008" transform="matrix(2.341374185435006,0,0,2.341374185435006,123.29267523418744,-12.163439295258373)">
	<path d="M8.3,13.7l-1.4,6c-0.4,1.8-1.7,3.2-3.4,3.8c-1.5,0.5-3.5,0.3-5-0.1l0.7-3.2h1.2c0.4,0.7,1.1,0.5,1.4,0.1
		c0.5-0.6,1.3-4.4,1.8-6.7h-1c0.1-0.6,0.2-1.1,0.3-1.4H1.4L2,9.7h6.3l-0.9,4L8.3,13.7L8.3,13.7z M9.3,5.2L8.5,8.7H3.7l0.8-3.5H9.3
		L9.3,5.2z M9.8,13.8H8.8c0.4-1.9,0.9-3.8,1.2-4.7h4.6l-1,4.7h1.1l-0.5,2.4c-0.2,1.1,1,0.8,1.2,0.3l0.6-2.7h-1L16,9.1h4.6l-1.1,4.7
		h1.1L19.2,20h-4.6l0-0.2c-1.9,0.7-5.1,0.7-5.4-1.7C9.1,17.3,9.4,15.6,9.8,13.8L9.8,13.8z M37,20h-4.6c0.5-2.1,1.1-4.3,1.5-6.4h-1
		c0-0.1,0-0.2,0-0.3c0.1-0.3,0.1-0.5,0-0.7c-0.1-0.5-0.8-0.3-1,0l-0.2,1h1L31.2,20h-4.6c0.5-2.1,1.1-4.2,1.5-6.4h-1
		c0-0.1,0-0.2,0.1-0.3c0.1-0.3,0.1-0.6,0.1-0.7l0,0c-0.1-0.5-0.8-0.3-1,0l-0.2,1h1L25.5,20h-4.6l1.5-6.4h-1L22.5,9h4.6L27,9.4
		c1.5-0.7,3.7-1.3,4.8,0.5c2.5-1.7,6.6-2,6.1,2.1c0,0.3-0.1,0.7-0.2,1l-0.1,0.6h1L37,20z M50.8,14.4C50,17.9,46.8,21.2,43,20
		l-0.8,3.7h-4.6l2.3-10h-1L40,9h4.6l-0.1,0.5c4.5-1.9,6.1,0.3,5.4,4.1h1C50.9,13.9,50.8,14.2,50.8,14.4L50.8,14.4z M43.8,12.5
		l-0.3,1.2h1l-0.7,3.2c1.4,0.3,2.5-1.7,2.6-3.2h-1C45.4,12.6,44.9,11.9,43.8,12.5L43.8,12.5z M51.8,14.6c0.1-0.3,0.2-0.6,0.3-0.9H51
		c2.3-6.4,12.4-7,11.1,0h1.1c0,0.1,0,0.2,0,0.4l-0.4,1.6h-6.5c-0.3,2.4,4.2,1.7,4.7,0.8h1.5l-0.7,2.8C57.9,21.4,50.4,20.9,51.8,14.6
		L51.8,14.6z M58.8,12.7c0.2-1.1-2.1-1.7-3.2,0C55.5,12.7,58.8,12.7,58.8,12.7z M68.5,13.6L67.1,20h-4.6l1.5-6.4h-0.9L64.1,9h4.6
		l-0.1,0.5c1.3-0.7,2.2-0.7,3.5-0.4L71.2,13H70c-0.2-0.9-1.9-0.6-2.2,0.1l-0.1,0.5L68.5,13.6L68.5,13.6z M83.9,14.5
		c-0.8,3.6-3.4,5.8-7.1,5.8c-3.6,0-5.3-2.2-4.4-5.8c0.1-0.3,0.1-0.6,0.3-0.9h-1c1-3.1,3.5-5,6.9-5c3.5,0,4.9,2,4.6,5h1
		C84,13.9,83.9,14.2,83.9,14.5L83.9,14.5z M76.3,13.7h1c-0.6,1.5-0.7,3.4,0.3,3.4c0.9,0,1.7-1.9,1.8-3.4h-1c0.1-0.9-0.1-1.7-0.7-1.7
		C77.1,12,76.6,12.8,76.3,13.7z"/>
</g>
</svg>
